inDegrees=no
num_controls=7
num_derivatives=13
num_iterations=188
num_multipliers=7
num_parameters=0
num_slacks=7
num_states=26
objective=0.509034
objective_accelerations=0.041687
objective_balance=0.003732
objective_effort=0.030039
objective_height=0.320999
objective_ligament=0.112576
solver_duration=2505.677775
status=Solve_Succeeded
success=true
DataType=double
version=3
OpenSimVersion=4.5
endheader
time	/jointset/ground_pelvis/pelvis_tilt/value	/jointset/ground_pelvis/pelvis_tx/value	/jointset/ground_pelvis/pelvis_ty/value	/jointset/hip_l/hip_flexion_l/value	/jointset/hip_l/hip_adduction_l/value	/jointset/hip_l/hip_rotation_l/value	/jointset/back/lumbar_extension/value	/jointset/patellofemoral_l/patellar_flexion_l/value	/jointset/knee_l/knee_flexion_l/value	/jointset/knee_l/knee_adduction_l/value	/jointset/knee_l/knee_rotation_l/value	/jointset/ankle_l/ankle_angle_l/value	/jointset/subtalar_l/subtalar_angle_l/value	/jointset/ground_pelvis/pelvis_tilt/speed	/jointset/ground_pelvis/pelvis_tx/speed	/jointset/ground_pelvis/pelvis_ty/speed	/jointset/hip_l/hip_flexion_l/speed	/jointset/hip_l/hip_adduction_l/speed	/jointset/hip_l/hip_rotation_l/speed	/jointset/back/lumbar_extension/speed	/jointset/patellofemoral_l/patellar_flexion_l/speed	/jointset/knee_l/knee_flexion_l/speed	/jointset/knee_l/knee_adduction_l/speed	/jointset/knee_l/knee_rotation_l/speed	/jointset/ankle_l/ankle_angle_l/speed	/jointset/subtalar_l/subtalar_angle_l/speed	/forceset/tau_hip_flexion_l	/forceset/tau_hip_adduction_l	/forceset/tau_hip_rotation_l	/forceset/tau_knee_flexion_l	/forceset/tau_ankle_angle_l	/forceset/tau_subtalar_angle_l	/forceset/tau_lumbar_extension	lambda_cid13_p0	lambda_cid13_p1	lambda_cid13_p2	lambda_cid13_p3	lambda_cid13_p4	lambda_cid13_p5	lambda_cid14_p0	/jointset/ground_pelvis/pelvis_tilt/accel	/jointset/ground_pelvis/pelvis_tx/accel	/jointset/ground_pelvis/pelvis_ty/accel	/jointset/hip_l/hip_flexion_l/accel	/jointset/hip_l/hip_adduction_l/accel	/jointset/hip_l/hip_rotation_l/accel	/jointset/back/lumbar_extension/accel	/jointset/patellofemoral_l/patellar_flexion_l/accel	/jointset/knee_l/knee_flexion_l/accel	/jointset/knee_l/knee_adduction_l/accel	/jointset/knee_l/knee_rotation_l/accel	/jointset/ankle_l/ankle_angle_l/accel	/jointset/subtalar_l/subtalar_angle_l/accel	gamma_cid13_p0	gamma_cid13_p1	gamma_cid13_p2	gamma_cid13_p3	gamma_cid13_p4	gamma_cid13_p5	gamma_cid14_p0
0.5	-0.1218263365222881	-0.05656140815804499	0.8242062286510253	0.8975287115475544	-0.3114475578690103	-0.1366779526351903	-0.7841753553440978	0.7904382948784543	0.7904382948784665	-0.07697814471785218	-0.1721030678843265	0.07437864609960813	0.007780748311960762	-0.242933212509913	-0.1741869001581713	-0.3589141842867627	1.551536730245918	-0.1088083787494437	0.555847364276309	-0.8594627679862179	1.549277222417953	1.549277222417959	-0.01023081284795494	0.01513938521883003	0.3096061485277457	-0.01658364349988677	-0.2882004623989403	0.03603403989889372	-0.007248007225432923	-0.1999827347959061	0.1092334575910359	0.04183816384651402	0.3342121918703228	-9.147064806906215	-17.53314963755123	3.44255563788865	-9.992400329613597	-698.8270523449049	-66.59894816793984	-14.76519080068866	0.4352542116737978	0.7068416090089235	-0.1960306171686117	-1.252622822876673	0.4297035239671955	-0.06896895212199669	1.81729365664816	-0.614402902424356	-0.6144029024244333	-0.06927191380312053	-0.003779784039382742	0.3328515785715884	0.5601015835862942	-1.823303755953075e-07	-4.073341912661801e-07	7.390843574296132e-07	2.852442940455485e-08	-1.748940954469693e-07	-4.706108024768221e-08	-1.607787447066891e-07
0.51	-0.1242337246481941	-0.05826790077101193	0.8206081649844619	0.9129785248350443	-0.3125148310838841	-0.1311238342432631	-0.7926780394770865	0.8058967411204938	0.8058967411206412	-0.07708567290845249	-0.1719526209872934	0.07748984051064063	0.007641703535974395	-0.2385282352827398	-0.1671093410071652	-0.3606099112689424	1.538165377070964	-0.1046464809457619	0.5548485808081759	-0.8409609668201389	1.542083012068964	1.542083012069056	-0.01128537456295103	0.01491700383549965	0.3125179423070995	-0.01125984017460113	-0.2954306275702303	0.03662766256165729	-0.007269373843794154	-0.2022704775626441	0.1079209184473632	0.04225232920902879	0.3410591723590554	-9.837332645503487	-17.55542822134982	3.40414968717552	-9.675322231946916	-703.4455566347048	-66.46941155736633	-14.18827764259259	0.4455269592658984	0.7085613190387113	-0.1430820311957676	-1.418496928878098	0.4093521751656966	-0.1346394221536633	1.883587115237037	-0.8212505224481523	-0.8212505224351154	-0.1251767378837625	-0.03626383494429577	0.2531078491006478	0.5133166194454342	-1.793949333017558e-07	-3.632796445424494e-07	7.372137347968691e-07	3.384947126473666e-08	-1.673257518126052e-07	-2.84614338556387e-08	-1.558982340611743e-07
0.52	-0.1265965815056212	-0.0599035481422904	0.8169957963895862	0.9282868035179729	-0.3135405014674011	-0.1255835649616128	-0.800992312844684	0.8212733811747794	0.8212733811750639	-0.07720407240371663	-0.1718053572079848	0.08062670577376352	0.007554856175730123	-0.2340269588145	-0.160017851820477	-0.361775169949237	1.523229809333075	-0.1004878124782043	0.553077542220259	-0.8217806149080906	1.532915984867498	1.532915984867677	-0.01240507377938337	0.01450276167359258	0.314740318945788	-0.006144160351486523	-0.3026607927415074	0.03722128522443215	-0.007290740462211622	-0.2045582203293781	0.1066083793036939	0.04266649457155802	0.3479061528477964	-10.5273729298635	-17.57942205975846	3.367931672670161	-9.411873994641057	-708.1013933795195	-66.37865544392395	-13.60585001898536	0.4545140598870736	0.7096276161453693	-0.08993695679161696	-1.565465735463834	0.4290576567423709	-0.2234199760787444	1.953003805841994	-1.008966272919691	-1.008966272919668	-0.0822994140903799	-0.04215193975473076	0.1949681504385537	0.5184768831520955	-1.773254282275105e-07	-3.157620973486099e-07	7.387059343669221e-07	4.125715479087372e-08	-1.623670511697234e-07	-8.773462846255652e-09	-1.509768123950722e-07
0.53	-0.1289141215574615	-0.06146828508400407	0.8133745540562084	0.9434377462415057	-0.3145247878339358	-0.1200648724411674	-0.8091114928348718	0.8365479645852528	0.8365479645853348	-0.07733437634754613	-0.1716632597367929	0.08378205571288884	0.00751781752820104	-0.2294831280207396	-0.1529345722299504	-0.3623712806940719	1.5066778492287	-0.09639487056465981	0.5505175082675896	-0.8019528412785819	1.521615023056986	1.521615023057154	-0.01370759659060341	0.01386136991049357	0.3161825618827225	-0.00133693094525684	-0.3096401362498356	0.03766381183156735	-0.007304029792026813	-0.207346336003387	0.1055614326332893	0.04292111021127536	0.3545799322966102	-11.1665096039327	-17.53758448111698	3.31499022566534	-9.025836892379365	-713.1029880681746	-66.24783937542416	-13.01899524567815	0.4539868866387241	0.7069318040371252	-0.02917768097576487	-1.742217115462555	0.3955400460107218	-0.2939481734277686	2.01304541908827	-1.248482582247872	-1.248482582249543	-0.1620431545869243	-0.08328593059084283	0.09677262486922829	0.4508023059274657	-1.725736738211609e-07	-2.661488595737141e-07	7.313879357936389e-07	4.700593799814106e-08	-1.53496322789804e-07	8.954272254452121e-09	-1.44355663685021e-07
0.54	-0.1311862894418598	-0.06296233849510634	0.8097504047058531	0.9584147381704897	-0.3154689192638645	-0.1145761108739584	-0.8170293188332476	0.8516979740881915	0.8516979740880752	-0.07747926840748394	-0.1715292068104317	0.08694741213329332	0.007526642442048152	-0.2249525253262549	-0.1458811456981952	-0.3623565733447581	1.488439650422794	-0.09245682515711118	0.5470913515722541	-0.7815098165457561	1.508001203361236	1.508001203361393	-0.01532269699978777	0.01289385270726105	0.3167416152015896	0.003028551923734832	-0.3166194797581513	0.03810633843871409	-0.007317319121896258	-0.2101344516773931	0.1045144859628875	0.04317572585100717	0.3612537117454325	-11.80669503383407	-17.49719615524551	3.264145839338297	-8.687163799293202	-718.157378401278	-66.15551435981187	-12.42911172289441	0.4518684400319076	0.7036570043911413	0.03222666203812703	-1.902713475770023	0.3980783555431835	-0.3966445246119846	2.076054026505401	-1.471537849967248	-1.47153784996728	-0.1448149336832556	-0.1073770277814414	0.01833022682509373	0.4301275757044979	-1.648543244090788e-07	-2.142169854112667e-07	7.143224839553877e-07	5.091934212921208e-08	-1.402973935093324e-07	2.451323571151914e-08	-1.358539659050685e-07
0.55	-0.1334133848951912	-0.06438611665158367	0.8061295037127072	0.9732011614860643	-0.3163743407999493	-0.1091257685479647	-0.824739855531244	0.8667002317624948	0.8667002317625055	-0.07764166740657345	-0.1714061616005389	0.09011388824673991	0.007576999023083491	-0.2204847281451631	-0.1388901704579905	-0.3617159323411221	1.468579636996606	-0.08865151341725944	0.5428374295902426	-0.7605180480155883	1.492051274819598	1.492051274819635	-0.01719979936326593	0.01167417910233005	0.3163953021747275	0.006966419369870227	-0.3231823519675335	0.03846833197316358	-0.00731406517458663	-0.2131861892663992	0.1035027817569276	0.04326849945376623	0.3675077819598723	-12.44594490921603	-17.3827446395832	3.196993598916569	-8.178848469843709	-723.1710257902755	-65.98750197718253	-11.83778646237829	0.4414925912749755	0.6944756655841935	0.09611014144222679	-2.067473446003858	0.3680826347373841	-0.4608350882436085	2.12265952191113	-1.716552614942651	-1.71655261496073	-0.2155793256840438	-0.1352711423873612	-0.08486763854715501	0.3641124727745001	-1.534221083125701e-07	-1.664650004374926e-07	6.838761257159022e-07	5.076432975485435e-08	-1.223194652569264e-07	3.69290944237772e-08	-1.258439644268001e-07
